<?xml version="1.0" encoding="iso-8859-1"?>
<!-- Generator: Adobe Illustrator 19.0.0, SVG Export Plug-In . SVG Version: 6.00 Build 0)  -->
<svg opacity="0.4" version="1.1" id="Layer_1" xmlns="http://www.w3.org/2000/svg" xmlns:xlink="http://www.w3.org/1999/xlink" x="0px" y="0px"
	 viewBox="0 0 392.598 392.598" style="enable-background:new 0 0 392.598 392.598;" xml:space="preserve">
<g>
	<rect x="21.851" y="348.444" style="fill:#56ACE0;" width="348.962" height="22.238"/>
	<path style="fill:#56ACE0;" d="M246.82,70.594c-0.323,26.117,5.818,83.523,60.962,115.846v-16.549
		C307.782,127.677,283.798,89.406,246.82,70.594z"/>
</g>
<path style="fill:#FFC10D;" d="M84.881,222.707v103.952h27.152C113.131,264.792,96.905,235.766,84.881,222.707z"/>
<path style="fill:#56ACE0;" d="M144.614,71.24c-36.267,19.006-59.733,56.954-59.733,98.651v15.838
	C138.085,153.794,144.614,97.358,144.614,71.24z"/>
<g>
	<path style="fill:#FFC10D;" d="M307.782,326.594v-105.05c-12.024,12.347-29.349,41.309-28.186,105.115h28.186V326.594z"/>
	<path style="fill:#FFC10D;" d="M196.267,84.687c18.747-17.067,36.719-38.4,36.719-47.838c0-10.214-10.214-18.036-20.945-13.834
		c-2.844,1.099-5.107,3.297-6.788,5.883c-4.267,6.465-13.705,6.465-17.907,0l0,0c-2.004-3.103-5.042-5.495-8.469-6.465
		c-10.02-2.715-19.135,4.784-19.135,14.481C159.677,46.481,177.584,67.814,196.267,84.687z"/>
</g>
<path style="fill:#194F82;" d="M381.737,326.594h-52.105V169.891c0-52.234-30.772-99.232-77.511-120.824
	c1.616-4.267,2.715-8.404,2.715-12.283C254.836,16.55,238.287,0,217.988,0c-7.887,0-15.451,2.521-21.657,7.046
	C190.125,2.586,182.562,0,174.675,0c-20.299,0-36.784,16.549-36.784,36.784c0,3.943,1.034,8.016,2.651,12.283
	C93.867,70.723,63.16,117.786,63.16,169.891v156.703H10.925C4.913,326.594,0,331.442,0,337.519v44.154
	c0,6.012,4.848,10.925,10.925,10.925h370.747c6.012,0,10.925-4.848,10.925-10.925v-44.154
	C392.598,331.507,387.749,326.594,381.737,326.594z M370.812,370.747H21.851v-22.238h348.962L370.812,370.747L370.812,370.747z
	 M84.881,169.891c0-41.826,23.467-79.644,59.733-98.651c0,26.117-6.659,82.618-59.733,114.618V169.891z M178.877,22.432
	c3.556,0.905,6.465,3.426,8.469,6.465l0,0c4.267,6.465,13.705,6.465,17.907,0c1.681-2.521,3.943-4.784,6.788-5.883
	c10.731-4.202,20.945,3.685,20.945,13.834c0,9.438-17.907,30.836-36.719,47.838c-18.683-16.873-36.655-38.077-36.655-47.838
	C159.677,27.216,168.727,19.653,178.877,22.432z M84.881,326.594V222.707c11.96,12.994,28.186,42.085,27.152,103.952H84.881V326.594
	z M97.034,204.024c52.881-32.194,66.069-85.075,68.719-118.626c10.15,10.667,19.911,19.071,23.661,22.174l0.065,0.065
	c4.008,3.297,9.826,3.297,13.77-0.065l0.065-0.065c3.556-2.909,12.8-11.055,22.562-21.269c2.844,33.616,16.226,85.851,68.59,117.786
	c-16.291,15.321-37.883,49.584-36.719,122.699H133.818C134.982,253.543,113.39,219.281,97.034,204.024z M307.782,221.543v105.115
	h-28.186C278.497,262.853,295.758,233.891,307.782,221.543z M307.782,186.44c-55.143-32.323-61.285-89.729-60.962-115.846
	c36.913,18.747,60.962,57.083,60.962,99.297V186.44L307.782,186.44z"/>
<g>
</g>
<g>
</g>
<g>
</g>
<g>
</g>
<g>
</g>
<g>
</g>
<g>
</g>
<g>
</g>
<g>
</g>
<g>
</g>
<g>
</g>
<g>
</g>
<g>
</g>
<g>
</g>
<g>
</g>
</svg>
